<?xml version="1.0" encoding="utf-8"?>
<!-- Generator: Adobe Illustrator 20.0.0, SVG Export Plug-In . SVG Version: 6.00 Build 0)  -->
<svg version="1.1" xmlns="http://www.w3.org/2000/svg" xmlns:xlink="http://www.w3.org/1999/xlink" x="0px" y="0px"
	 viewBox="0 0 841.9 595.3" style="enable-background:new 0 0 841.9 595.3;" xml:space="preserve">
<style type="text/css">
	.st0{fill:#72C8F1;}
	.st1{fill:#4FB848;}
	.st2{fill:#F7EC13;stroke:#000000;stroke-miterlimit:10;}
	.st3{display:none;}
	.st4{display:inline;}
	.st5{fill:#F5EB14;stroke:#000000;stroke-miterlimit:10;}
	.st6{fill:#653614;stroke:#000000;stroke-miterlimit:10;}
	.st7{fill:none;stroke:#8EC03F;stroke-width:7;stroke-miterlimit:10;}
	.st8{fill:#653716;}
	.st9{fill:#FFCD05;}
	.st10{fill:#653614;}
	.st11{fill:#EC2426;}
	.st12{fill:#ED2024;}
	.st13{fill:#F8991D;}
	.st14{fill:#3953A4;}
	.st15{fill:#7352A2;}
	.st16{fill:#8EC03F;}
</style>
<g id="Layer_1">
	<rect x="-2.2" y="1.4" class="st0" width="841.9" height="486"/>
	<circle class="st1" cx="599.4" cy="128.1" r="34.8"/>
	<circle class="st1" cx="666.3" cy="93.3" r="34.8"/>
	<circle class="st1" cx="599.4" cy="128.1" r="34.8"/>
	<circle class="st1" cx="614" cy="88.7" r="34.8"/>
	<circle class="st1" cx="656.4" cy="58.5" r="34.8"/>
	<circle class="st1" cx="564.6" cy="88.7" r="34.8"/>
	<circle class="st1" cx="634.2" cy="25.8" r="34.8"/>
	<circle class="st1" cx="586.7" cy="45.9" r="34.8"/>
	<circle class="st1" cx="648.9" cy="145.2" r="34.8"/>
	<circle class="st1" cx="614" cy="171.4" r="34.8"/>
	<circle class="st1" cx="561.4" cy="154.2" r="34.8"/>
	<circle class="st1" cx="529.7" cy="119.4" r="34.8"/>
	<circle class="st1" cx="677.9" cy="158.3" r="34.8"/>
	<circle class="st1" cx="744.8" cy="36.8" r="34.8"/>
	<circle class="st1" cx="712.8" cy="23.7" r="34.8"/>
	<circle class="st1" cx="794.5" cy="34.8" r="34.8"/>
	<circle class="st1" cx="814.5" cy="25.8" r="34.8"/>
	<circle class="st1" cx="771.7" cy="19" r="34.8"/>
	<circle class="st1" cx="675.2" cy="25.8" r="34.8"/>
	<circle class="st1" cx="715.7" cy="180.1" r="34.8"/>
	<circle class="st1" cx="656.4" cy="180.1" r="34.8"/>
	<ellipse transform="matrix(0.2327 -0.9725 0.9725 0.2327 -18.0331 55.1423)" class="st2" cx="25.9" cy="39" rx="71.4" ry="67.2"/>
	<circle class="st1" cx="539.6" cy="34.8" r="34.8"/>
	<circle class="st1" cx="517" cy="83.1" r="34.8"/>
	<circle class="st1" cx="512.4" cy="145.2" r="34.8"/>
	<circle class="st1" cx="561.4" cy="193.2" r="34.8"/>
	<circle class="st1" cx="586.7" cy="2" r="34.8"/>
	<circle class="st1" cx="621.5" cy="221.4" r="34.8"/>
	<circle class="st1" cx="680.8" cy="215.4" r="34.8"/>
</g>
<g id="Layer_2">
	<polygon class="st1" points="0.8,487.4 3.5,481 6.8,487.4 8.5,477.8 12.8,487.4 15.5,482.6 18.8,487.4 24.3,477.8 24.3,487.4 
		29.8,482.6 31.8,487.4 34,480 37.3,487.4 38.8,477.8 43.3,487.4 43.3,481 47.3,487.4 49.5,482.6 52.5,487.4 55.5,482.6 58.3,487.4 
		59.8,483.8 62.8,487.4 64.8,483.8 66.3,487.4 69,482.6 70.5,487.4 75.5,480.5 77.8,487.4 80,482.6 81.3,487.4 84.5,477.8 87,487.4 
		90.3,481.5 91.8,487.4 	"/>
	<rect x="-0.2" y="486.4" class="st1" width="844.2" height="108.8"/>
	<polygon class="st1" points="91.8,487.4 94.5,481 97.7,487.4 99.5,477.8 103.7,487.4 106.5,482.6 109.7,487.4 115.2,477.8 
		115.2,487.4 120.7,482.6 122.7,487.4 125,480 128.2,487.4 129.7,477.8 134.2,487.4 134.2,481 138.2,487.4 140.5,482.6 143.5,487.4 
		146.5,482.6 149.2,487.4 150.7,483.8 153.7,487.4 155.7,483.8 157.2,487.4 160,482.6 161.5,487.4 166.5,480.5 168.7,487.4 
		171,482.6 172.2,487.4 175.5,477.8 178,487.4 181.2,481.5 182.7,487.4 	"/>
	<polygon class="st1" points="182.7,487.4 185.5,481 188.7,487.4 190.5,477.8 194.7,487.4 197.5,482.6 200.7,487.4 206.2,477.8 
		206.2,487.4 211.7,482.6 213.7,487.4 216,480 219.2,487.4 220.7,477.8 225.2,487.4 225.2,481 229.2,487.4 231.5,482.6 234.5,487.4 
		237.5,482.6 240.2,487.4 241.7,483.8 244.7,487.4 246.7,483.8 248.2,487.4 251,482.6 252.5,487.4 257.5,480.5 259.7,487.4 
		262,482.6 263.2,487.4 266.5,477.8 269,487.4 272.2,481.5 273.7,487.4 	"/>
	<polygon class="st1" points="273.7,487.4 276.5,481 279.7,487.4 281.5,477.8 285.7,487.4 288.5,482.6 291.7,487.4 297.2,477.8 
		297.2,487.4 302.7,482.6 304.7,487.4 307,480 310.2,487.4 311.7,477.8 316.2,487.4 316.2,481 320.2,487.4 322.5,482.6 325.5,487.4 
		328.5,482.6 331.2,487.4 332.7,483.8 335.7,487.4 337.7,483.8 339.2,487.4 342,482.6 343.5,487.4 348.5,480.5 350.7,487.4 
		353,482.6 354.2,487.4 357.5,477.8 360,487.4 363.2,481.5 364.7,487.4 	"/>
	<polygon class="st1" points="364.7,487.4 367.5,481 370.7,487.4 372.5,477.8 376.7,487.4 379.5,482.6 382.7,487.4 388.2,477.8 
		388.2,487.4 393.7,482.6 395.7,487.4 398,480 401.2,487.4 402.7,477.8 407.2,487.4 407.2,481 411.2,487.4 413.5,482.6 416.5,487.4 
		419.5,482.6 422.2,487.4 423.7,483.8 426.7,487.4 428.7,483.8 430.2,487.4 433,482.6 434.5,487.4 439.5,480.5 441.7,487.4 
		444,482.6 445.2,487.4 448.5,477.8 451,487.4 454.2,481.5 455.7,487.4 	"/>
	<polygon class="st1" points="455.7,486.4 458.5,480 461.7,486.4 463.5,476.8 467.7,486.4 470.5,481.6 473.7,486.4 479.2,476.8 
		479.2,486.4 484.7,481.6 486.7,486.4 489,479 492.2,486.4 493.7,476.8 498.2,486.4 498.2,480 502.2,486.4 504.5,481.6 507.5,486.4 
		510.5,481.6 513.2,486.4 514.7,482.8 517.7,486.4 519.7,482.8 521.2,486.4 524,481.6 525.5,486.4 530.5,479.5 532.7,486.4 
		535,481.6 536.2,486.4 539.5,476.8 542,486.4 545.2,480.5 546.7,486.4 	"/>
	<polygon class="st1" points="546.7,486.4 549.4,480 552.7,486.4 554.4,476.8 558.7,486.4 561.4,481.6 564.7,486.4 570.2,476.8 
		570.2,486.4 575.7,481.6 577.7,486.4 579.9,479 583.2,486.4 584.7,476.8 589.2,486.4 589.2,480 593.2,486.4 595.4,481.6 
		598.4,486.4 601.4,481.6 604.2,486.4 605.7,482.8 608.7,486.4 610.7,482.8 612.2,486.4 614.9,481.6 616.4,486.4 621.4,479.5 
		623.7,486.4 625.9,481.6 627.2,486.4 630.4,476.8 632.9,486.4 636.2,480.5 637.7,486.4 	"/>
	<polygon class="st1" points="637.7,487.4 640.4,481 643.7,487.4 645.4,477.8 649.7,487.4 652.4,482.6 655.7,487.4 661.2,477.8 
		661.2,487.4 666.7,482.6 668.7,487.4 670.9,480 674.2,487.4 675.7,477.8 680.2,487.4 680.2,481 684.2,487.4 686.4,482.6 
		689.4,487.4 692.4,482.6 695.2,487.4 696.7,483.8 699.7,487.4 701.7,483.8 703.2,487.4 705.9,482.6 707.4,487.4 712.4,480.5 
		714.7,487.4 716.9,482.6 718.2,487.4 721.4,477.8 723.9,487.4 727.2,481.5 728.7,487.4 	"/>
</g>
<g id="Layer_4" class="st3">
	<g class="st4">
		<path class="st2" d="M455.6,175.4c0,0,35,16.4,84,0c0,0,9.8,11.5,0,26.4c0,0-56.4,14.8-84-2.9
			C455.6,198.8,445.2,192.4,455.6,175.4z"/>
		<path class="st2" d="M460,215.9c0,0,38,18.1,73.3,0.5c2.3,16.6-7.7,23.2-7.7,23.2s-30.7,19.8-57.2-1.9
			C460,229.4,460,215.9,460,215.9z"/>
		<path class="st2" d="M455.7,198.8c0,0,19,18.8,83.4,2.9c0,0,2.7,12-4.8,20.6c0,0-35.1,16.6-74.3,0
			C460,222.4,448.1,209.2,455.7,198.8z"/>
		<path class="st5" d="M455.6,175.4c0,0,41.8,16,84,0C502.4,158,455.6,175.4,455.6,175.4z"/>
	</g>
</g>
<g id="Layer_3">
	<path class="st6" d="M699.7,488.4c0,0,85.5-322.1-16.6-345.6c0,0-118.6-32.4-192.4,37.2c0,0,17.2-100,186.9-82.1
		c0,0,19.3-47.3-29-96.1c0,0,60.7,0.9,91,60.2c0,0,82.3-16.1,102.2-59.8v486c0,0-31.8-5.5-36.6,0c0,0-26.2,11.8-44.8,0
		c0,0-42.1,0-41.4,0C719,488.4,697.8,496.1,699.7,488.4z"/>
</g>
<g id="Layer_5">
	<polygon class="st1" points="697.7,492.6 699.8,482.6 702.4,492.6 703.8,477.6 707.1,492.6 709.3,485.1 711.9,492.6 716.2,477.6 
		716.2,492.6 720.5,485.1 722.1,492.6 723.9,481.1 726.5,492.6 727.6,477.6 731.2,492.6 731.2,482.6 734.3,492.6 736.1,485.1 
		738.5,492.6 740.8,485.1 743,492.6 744.2,486.9 746.6,492.6 748.1,486.9 749.3,492.6 751.5,485.1 752.7,492.6 756.6,481.9 
		758.4,492.6 760.2,485.1 761.2,492.6 763.7,477.6 765.7,492.6 768.2,483.4 769.4,492.6 	"/>
	<polygon class="st1" points="749.5,494.6 752.2,482.7 755.5,494.6 757.2,476.8 761.5,494.6 764.2,485.7 767.5,494.6 773,476.8 
		773,494.6 778.5,485.7 780.5,494.6 782.7,480.9 786,494.6 787.5,476.8 792,494.6 792,482.7 796,494.6 798.2,485.7 801.2,494.6 
		804.2,485.7 807,494.6 808.5,487.8 811.5,494.6 813.5,487.8 815,494.6 817.7,485.7 819.2,494.6 824.2,481.8 826.5,494.6 
		828.7,485.7 830,494.6 833.2,476.8 835.7,494.6 839,483.6 840.5,494.6 	"/>
</g>
<g id="Layer_6">
	<path class="st7" d="M389.3,315.3c0,0-14.4,28.7,10.1,64c0,0,24.8,39.1,0,75.9"/>
	<path class="st7" d="M304.8,315.3c0,0-14.4,28.7,10.1,64c0,0,24.8,39.1,0,75.9"/>
	<path class="st7" d="M214.8,316.5c0,0-14.4,28.7,10.1,64c0,0,24.8,39.1,0,75.9"/>
	<path class="st7" d="M129.7,317.3c0,0-14.4,28.7,10.1,64c0,0,24.8,39.1,0,75.9"/>
	<path class="st7" d="M41,317.3c0,0-14.4,28.7,10.1,64c0,0,24.8,39.1,0,75.9"/>
	<g>
		<g>
			<path class="st8" d="M36,465.2c0,0,16.5,5.3,33.1,0c0,0-1.1,16-2.7,20.9c-1.5,4.9-22.1,5.7-28.1,1.9C38.3,488,36,475.1,36,465.2z
				"/>
			<path class="st8" d="M34.5,456.6c0,0,15.4,5.7,35.3,0C69.8,456.6,57.6,451.3,34.5,456.6z"/>
		</g>
		<path class="st6" d="M36,455.8c0,0,16.3,6.8,33.1,0v9.9c0,0-14.5,5.7-33.1,0V455.8z"/>
	</g>
	<g>
		<g>
			<path class="st8" d="M122.4,465.2c0,0,16.5,5.3,33.1,0c0,0-1.1,16-2.7,20.9c-1.5,4.9-22.1,5.7-28.1,1.9
				C124.7,488,122.4,475.1,122.4,465.2z"/>
			<path class="st8" d="M120.9,456.6c0,0,15.4,5.7,35.3,0C156.2,456.6,144,451.3,120.9,456.6z"/>
		</g>
		<path class="st6" d="M122.4,455.8c0,0,16.3,6.8,33.1,0v9.9c0,0-14.5,5.7-33.1,0V455.8z"/>
	</g>
	<g>
		<g>
			<path class="st8" d="M208.8,465.2c0,0,16.5,5.3,33.1,0c0,0-1.1,16-2.7,20.9c-1.5,4.9-22.1,5.7-28.1,1.9
				C211.1,488,208.8,475.1,208.8,465.2z"/>
			<path class="st8" d="M207.3,456.6c0,0,15.4,5.7,35.3,0C242.6,456.6,230.4,451.3,207.3,456.6z"/>
		</g>
		<path class="st6" d="M208.8,455.8c0,0,16.3,6.8,33.1,0v9.9c0,0-14.5,5.7-33.1,0V455.8z"/>
	</g>
	<g>
		<g>
			<path class="st8" d="M295.2,465.2c0,0,16.5,5.3,33.1,0c0,0-1.1,16-2.7,20.9c-1.5,4.9-22.1,5.7-28.1,1.9
				C297.5,488,295.2,475.1,295.2,465.2z"/>
			<path class="st8" d="M293.7,456.6c0,0,15.4,5.7,35.3,0C329,456.6,316.8,451.3,293.7,456.6z"/>
		</g>
		<path class="st6" d="M295.2,455.8c0,0,16.3,6.8,33.1,0v9.9c0,0-14.5,5.7-33.1,0V455.8z"/>
	</g>
	<g>
		<g>
			<path class="st8" d="M381.6,465.2c0,0,16.5,5.3,33.1,0c0,0-1.1,16-2.7,20.9c-1.5,4.9-22.1,5.7-28.1,1.9
				C383.9,488,381.6,475.1,381.6,465.2z"/>
			<path class="st8" d="M380.1,456.6c0,0,15.4,5.7,35.3,0C415.4,456.6,403.3,451.3,380.1,456.6z"/>
		</g>
		<path class="st6" d="M381.6,455.8c0,0,16.3,6.8,33.1,0v9.9c0,0-14.5,5.7-33.1,0V455.8z"/>
	</g>
	<g>
		<path class="st9" d="M38.1,308.6c0,0-9.1,11.1-21.1,4.7c0,0,3.3-11.6,19.4-13.5C36.4,299.8,33.7,302.4,38.1,308.6z"/>
		<path class="st9" d="M35.6,302.3c0,0-14.4,0.4-17.3-12.9c0,0,10.9-5.1,22.8,5.8C41.1,295.2,37.3,294.9,35.6,302.3z"/>
		<path class="st9" d="M38.7,294.2c0,0-7.7-12.1,2.1-21.5c0,0,10,6.7,6.8,22.6C47.6,295.3,46,291.9,38.7,294.2z"/>
		<path class="st9" d="M48.8,294.2c0,0,5.9-13.1,19.1-10c0,0-0.1,12.1-15.1,18.1C52.8,302.3,54.7,299.1,48.8,294.2z"/>
		<path class="st9" d="M51.1,302.4c0,0,13.9-3.5,19.7,8.8c0,0-9.6,7.4-23.6-0.7C47.3,310.5,51,310.1,51.1,302.4z"/>
		<path class="st9" d="M46.7,310.2c0,0,3.7,13.9-8.5,19.8c0,0-7.5-9.4,0.3-23.6C38.5,306.5,39,310.2,46.7,310.2z"/>
		<circle class="st10" cx="43.9" cy="302" r="9"/>
	</g>
	<g>
		<path class="st11" d="M126,308.6c0,0-9.1,11.1-21.1,4.7c0,0,3.3-11.6,19.4-13.5C124.3,299.8,121.5,302.4,126,308.6z"/>
		<path class="st11" d="M123.4,302.3c0,0-14.4,0.4-17.3-12.9c0,0,10.9-5.1,22.8,5.8C128.9,295.2,125.2,294.9,123.4,302.3z"/>
		<path class="st12" d="M126.6,294.2c0,0-7.7-12.1,2.1-21.5c0,0,10,6.7,6.8,22.6C135.4,295.3,133.8,291.9,126.6,294.2z"/>
		<path class="st11" d="M136.6,294.2c0,0,5.9-13.1,19.1-10c0,0-0.1,12.1-15.1,18.1C140.6,302.3,142.5,299.1,136.6,294.2z"/>
		<path class="st11" d="M139,302.4c0,0,13.9-3.5,19.7,8.8c0,0-9.6,7.4-23.6-0.7C135.1,310.5,138.8,310.1,139,302.4z"/>
		<path class="st11" d="M134.5,310.2c0,0,3.7,13.9-8.5,19.8c0,0-7.5-9.4,0.3-23.6C126.4,306.5,126.9,310.2,134.5,310.2z"/>
		<circle class="st10" cx="131.7" cy="302" r="9"/>
	</g>
	<g>
		<path class="st13" d="M214.1,309.2c0,0-9.1,11.1-21.1,4.7c0,0,3.3-11.6,19.4-13.5C212.4,300.4,209.7,303,214.1,309.2z"/>
		<path class="st13" d="M211.5,302.9c0,0-14.4,0.4-17.3-12.9c0,0,10.9-5.1,22.8,5.8C217,295.8,213.3,295.5,211.5,302.9z"/>
		<path class="st13" d="M214.7,294.8c0,0-7.7-12.1,2.1-21.5c0,0,10,6.7,6.8,22.6C223.6,295.9,222,292.5,214.7,294.8z"/>
		<path class="st13" d="M224.7,294.8c0,0,5.9-13.1,19.1-10c0,0-0.1,12.1-15.1,18.1C228.7,302.9,230.7,299.7,224.7,294.8z"/>
		<path class="st13" d="M227.1,303c0,0,13.9-3.5,19.7,8.8c0,0-9.6,7.4-23.6-0.7C223.2,311.1,227,310.7,227.1,303z"/>
		<path class="st13" d="M222.6,310.8c0,0,3.7,13.9-8.5,19.8c0,0-7.5-9.4,0.3-23.6C214.5,307.1,215,310.8,222.6,310.8z"/>
		<circle class="st10" cx="219.9" cy="302.6" r="9"/>
	</g>
	<g>
		<path class="st14" d="M301.2,308.6c0,0-9.1,11.1-21.1,4.7c0,0,3.3-11.6,19.4-13.5C299.5,299.8,296.8,302.4,301.2,308.6z"/>
		<path class="st14" d="M298.7,302.3c0,0-14.4,0.4-17.3-12.9c0,0,10.9-5.1,22.8,5.8C304.2,295.2,300.4,294.9,298.7,302.3z"/>
		<path class="st14" d="M301.8,294.2c0,0-7.7-12.1,2.1-21.5c0,0,10,6.7,6.8,22.6C310.7,295.3,309.1,291.9,301.8,294.2z"/>
		<path class="st14" d="M311.9,294.2c0,0,5.9-13.1,19.1-10c0,0-0.1,12.1-15.1,18.1C315.9,302.3,317.8,299.1,311.9,294.2z"/>
		<path class="st14" d="M314.2,302.4c0,0,13.9-3.5,19.7,8.8c0,0-9.6,7.4-23.6-0.7C310.4,310.5,314.1,310.1,314.2,302.4z"/>
		<path class="st14" d="M309.8,310.2c0,0,3.7,13.9-8.5,19.8c0,0-7.5-9.4,0.3-23.6C301.6,306.5,302.1,310.2,309.8,310.2z"/>
		<circle class="st10" cx="307" cy="302" r="9"/>
	</g>
	<g>
		<path class="st15" d="M387.6,308.6c0,0-9.1,11.1-21.1,4.7c0,0,3.3-11.6,19.4-13.5C385.9,299.8,383.2,302.4,387.6,308.6z"/>
		<path class="st15" d="M385,302.3c0,0-14.4,0.4-17.3-12.9c0,0,10.9-5.1,22.8,5.8C390.5,295.2,386.8,294.9,385,302.3z"/>
		<path class="st15" d="M388.2,294.2c0,0-7.7-12.1,2.1-21.5c0,0,10,6.7,6.8,22.6C397.1,295.3,395.5,291.9,388.2,294.2z"/>
		<path class="st15" d="M398.2,294.2c0,0,5.9-13.1,19.1-10c0,0-0.1,12.1-15.1,18.1C402.2,302.3,404.2,299.1,398.2,294.2z"/>
		<path class="st15" d="M400.6,302.4c0,0,13.9-3.5,19.7,8.8c0,0-9.6,7.4-23.6-0.7C396.7,310.5,400.5,310.1,400.6,302.4z"/>
		<path class="st15" d="M396.1,310.2c0,0,3.7,13.9-8.5,19.8c0,0-7.5-9.4,0.3-23.6C388,306.5,388.5,310.2,396.1,310.2z"/>
		<circle class="st10" cx="393.4" cy="302" r="9"/>
	</g>
	<path class="st16" d="M63.8,354.5c0,0,1.1,12.5-12.8,15.8S49.8,350.7,63.8,354.5z"/>
	<path class="st16" d="M165.1,376.2c0,0,1.1,12.5-12.8,15.8S151.1,372.4,165.1,376.2z"/>
	<path class="st16" d="M102.6,338.8c0,0,10.9-6.3,19.7,4.9C131.2,354.8,105.1,353.1,102.6,338.8z"/>
	<path class="st16" d="M256.2,401.2c0,0,1.1,12.5-12.8,15.8C229.5,420.3,242.2,397.4,256.2,401.2z"/>
	<path class="st16" d="M321.3,333c0,0,1.1,12.5-12.8,15.8C294.7,352.2,307.3,329.2,321.3,333z"/>
	<path class="st16" d="M301.2,424.5c0,0,11-6.1,19.7,5.2C329.6,441,303.5,438.8,301.2,424.5z"/>
	<path class="st16" d="M385.3,392.2c0,0,11.6-4.9,19,7.3C411.7,411.6,386,406.7,385.3,392.2z"/>
</g>
</svg>
