<?xml version="1.0" encoding="utf-8"?>
<!-- Generator: Adobe Illustrator 20.0.0, SVG Export Plug-In . SVG Version: 6.00 Build 0)  -->
<svg version="1.1" id="Layer_1" xmlns="http://www.w3.org/2000/svg" xmlns:xlink="http://www.w3.org/1999/xlink" x="0px" y="0px"
	 viewBox="0 0 1366 638" style="enable-background:new 0 0 1366 638;" xml:space="preserve">
<style type="text/css">
	.st0{fill:#72C8F1;}
	.st1{fill:#4FB848;}
	.st2{fill:#F7EC13;stroke:#000000;stroke-miterlimit:10;}
	.st3{display:none;}
	.st4{display:inline;}
	.st5{fill:#F5EB14;stroke:#000000;stroke-miterlimit:10;}
	.st6{fill:#653614;stroke:#000000;stroke-miterlimit:10;}
</style>
<g id="Layer_1_1_">
	<rect x="0.9" y="-0.3" class="st0" width="1366" height="638.3"/>
	<circle class="st1" cx="1109" cy="159.5" r="41.2"/>
	<circle class="st1" cx="1188.2" cy="118.3" r="41.2"/>
	<circle class="st1" cx="1109" cy="159.5" r="41.2"/>
	<circle class="st1" cx="1126.3" cy="112.8" r="41.2"/>
	<circle class="st1" cx="1176.5" cy="77" r="41.2"/>
	<circle class="st1" cx="1067.8" cy="112.8" r="41.2"/>
	<circle class="st1" cx="1150.2" cy="38.3" r="41.2"/>
	<circle class="st1" cx="1093.9" cy="62.1" r="41.2"/>
	<circle class="st1" cx="1167.6" cy="179.8" r="41.2"/>
	<circle class="st1" cx="1126.3" cy="210.8" r="41.2"/>
	<circle class="st1" cx="1064" cy="190.4" r="41.2"/>
	<circle class="st1" cx="1026.4" cy="149.2" r="41.2"/>
	<circle class="st1" cx="1202" cy="195.3" r="41.2"/>
	<circle class="st1" cx="1281.2" cy="51.3" r="41.2"/>
	<circle class="st1" cx="1243.3" cy="35.8" r="41.2"/>
	<circle class="st1" cx="1340.1" cy="49" r="41.2"/>
	<circle class="st1" cx="1363.8" cy="38.3" r="41.2"/>
	<circle class="st1" cx="1313.1" cy="30.2" r="41.2"/>
	<circle class="st1" cx="1198.8" cy="38.3" r="41.2"/>
	<circle class="st1" cx="1246.8" cy="221.1" r="41.2"/>
	<circle class="st1" cx="1176.5" cy="221.1" r="41.2"/>
	<ellipse transform="matrix(0.2327 -0.9725 0.9725 0.2327 -6.5535 68.2442)" class="st2" cx="40" cy="38.3" rx="71.4" ry="67.2"/>
	<circle class="st1" cx="1038.1" cy="49" r="41.2"/>
	<circle class="st1" cx="1011.4" cy="106.2" r="41.2"/>
	<circle class="st1" cx="1005.9" cy="179.8" r="41.2"/>
	<circle class="st1" cx="1064" cy="236.6" r="41.2"/>
	<circle class="st1" cx="1093.9" cy="10.1" r="41.2"/>
	<circle class="st1" cx="1135.2" cy="270" r="41.2"/>
	<circle class="st1" cx="1205.4" cy="262.9" r="41.2"/>
</g>
<g id="Layer_2">
	<polygon class="st1" points="2.6,510.7 6.9,503.1 12.3,510.7 15,499.3 22,510.7 26.4,505 31.7,510.7 40.6,499.3 40.6,510.7 
		49.5,505 52.8,510.7 56.4,501.9 61.7,510.7 64.1,499.3 71.4,510.7 71.4,503.1 77.9,510.7 81.5,505 86.3,510.7 91.2,505 95.7,510.7 
		98.1,506.4 103,510.7 106.2,506.4 108.7,510.7 113.1,505 115.5,510.7 123.6,502.5 127.3,510.7 130.9,505 133,510.7 138.2,499.3 
		142.2,510.7 147.6,503.7 150,510.7 	"/>
	<rect x="0.9" y="509.5" class="st1" width="1367.6" height="128.5"/>
	<polygon class="st1" points="150,510.7 154.4,503.1 159.5,510.7 162.5,499.3 169.3,510.7 173.8,505 179,510.7 187.9,499.3 
		187.9,510.7 196.8,505 200,510.7 203.8,501.9 209,510.7 211.4,499.3 218.7,510.7 218.7,503.1 225.2,510.7 228.9,505 233.7,510.7 
		238.6,505 243,510.7 245.4,506.4 250.3,510.7 253.5,506.4 255.9,510.7 260.5,505 262.9,510.7 271,502.5 274.6,510.7 278.3,505 
		280.2,510.7 285.6,499.3 289.6,510.7 294.8,503.7 297.2,510.7 	"/>
	<polygon class="st1" points="297.2,510.7 301.8,503.1 307,510.7 309.9,499.3 316.7,510.7 321.2,505 326.4,510.7 335.3,499.3 
		335.3,510.7 344.2,505 347.5,510.7 351.2,501.9 356.4,510.7 358.8,499.3 366.1,510.7 366.1,503.1 372.6,510.7 376.3,505 
		381.2,510.7 386,505 390.4,510.7 392.8,506.4 397.7,510.7 400.9,506.4 403.4,510.7 407.9,505 410.3,510.7 418.4,502.5 422,510.7 
		425.7,505 427.7,510.7 433,499.3 437.1,510.7 442.2,503.7 444.7,510.7 	"/>
	<polygon class="st1" points="444.7,510.7 449.2,503.1 454.4,510.7 457.3,499.3 464.1,510.7 468.6,505 473.8,510.7 482.7,499.3 
		482.7,510.7 491.6,505 494.9,510.7 498.6,501.9 503.8,510.7 506.2,499.3 513.5,510.7 513.5,503.1 520,510.7 523.7,505 528.6,510.7 
		533.4,505 537.8,510.7 540.2,506.4 545.1,510.7 548.3,506.4 550.8,510.7 555.3,505 557.7,510.7 565.8,502.5 569.4,510.7 573.1,505 
		575.1,510.7 580.4,499.3 584.5,510.7 589.7,503.7 592.1,510.7 	"/>
	<polygon class="st1" points="592.1,510.7 596.6,503.1 601.8,510.7 604.7,499.3 611.5,510.7 616.1,505 621.2,510.7 630.2,499.3 
		630.2,510.7 639.1,505 642.3,510.7 646,501.9 651.2,510.7 653.6,499.3 660.9,510.7 660.9,503.1 667.4,510.7 671.1,505 676,510.7 
		680.9,505 685.2,510.7 687.7,506.4 692.5,510.7 695.8,506.4 698.2,510.7 702.7,505 705.2,510.7 713.3,502.5 716.8,510.7 720.6,505 
		722.5,510.7 727.8,499.3 731.9,510.7 737.1,503.7 739.5,510.7 	"/>
	<polygon class="st1" points="739.5,509.5 744,501.9 749.2,509.5 752.1,498.1 758.9,509.5 763.5,503.8 768.7,509.5 777.6,498.1 
		777.6,509.5 786.5,503.8 789.7,509.5 793.5,500.7 798.6,509.5 801.1,498.1 808.4,509.5 808.4,501.9 814.8,509.5 818.6,503.8 
		823.4,509.5 828.3,503.8 832.7,509.5 835.1,505.2 839.9,509.5 843.2,505.2 845.6,509.5 850.2,503.8 852.6,509.5 860.7,501.3 
		864.2,509.5 868,503.8 869.9,509.5 875.3,498.1 879.3,509.5 884.5,502.5 886.9,509.5 	"/>
	<polygon class="st1" points="886.9,509.5 891.3,501.9 896.6,509.5 899.4,498.1 906.4,509.5 910.7,503.8 916.1,509.5 925,498.1 
		925,509.5 933.9,503.8 937.1,509.5 940.7,500.7 946.1,509.5 948.5,498.1 955.8,509.5 955.8,501.9 962.3,509.5 965.8,503.8 
		970.7,509.5 975.5,503.8 980.1,509.5 982.5,505.2 987.4,509.5 990.6,505.2 993,509.5 997.4,503.8 999.8,509.5 1007.9,501.3 
		1011.7,509.5 1015.2,503.8 1017.3,509.5 1022.5,498.1 1026.6,509.5 1031.9,502.5 1034.3,509.5 	"/>
	<polygon class="st1" points="1034.3,510.7 1038.7,503.1 1044.1,510.7 1046.8,499.3 1053.8,510.7 1058.2,505 1063.5,510.7 
		1072.4,499.3 1072.4,510.7 1081.3,505 1084.6,510.7 1088.1,501.9 1093.5,510.7 1095.9,499.3 1103.2,510.7 1103.2,503.1 
		1109.7,510.7 1113.2,505 1118.1,510.7 1123,505 1127.5,510.7 1129.9,506.4 1134.8,510.7 1138,506.4 1140.5,510.7 1144.8,505 
		1147.3,510.7 1155.4,502.5 1159.1,510.7 1162.6,505 1164.8,510.7 1169.9,499.3 1174,510.7 1179.3,503.7 1181.8,510.7 	"/>
</g>
<g id="Layer_4" class="st3">
	<g class="st4">
		<path class="st2" d="M978.1,196.7c0,0,35,16.4,84,0c0,0,9.8,11.5,0,26.4c0,0-56.4,14.8-84-2.9
			C978.1,220.1,967.7,213.7,978.1,196.7z"/>
		<path class="st2" d="M982.4,237.2c0,0,38,18.1,73.3,0.5c2.3,16.6-7.7,23.2-7.7,23.2s-30.7,19.8-57.2-1.9
			C982.4,250.7,982.4,237.2,982.4,237.2z"/>
		<path class="st2" d="M978.2,220.1c0,0,19,18.8,83.4,2.9c0,0,2.7,12-4.8,20.6c0,0-35.1,16.6-74.3,0
			C982.4,243.7,970.6,230.5,978.2,220.1z"/>
		<path class="st5" d="M978.1,196.7c0,0,41.8,16,84,0C1024.8,179.3,978.1,196.7,978.1,196.7z"/>
	</g>
</g>
<g id="Layer_3">
	<path class="st6" d="M1223.5,512.3c0,0,85.5-322.1-16.6-345.6c0,0-118.6-32.4-192.4,37.2c0,0,17.2-100,186.9-82.1
		c0,0,19.3-47.3-29-96.1c0,0,60.7,0.9,91,60.2c0,0,82.3-16.1,102.2-59.8v486c0,0-31.8-5.5-36.6,0c0,0-26.2,11.8-44.8,0
		c0,0-42.1,0-41.4,0C1242.8,512.3,1221.6,520,1223.5,512.3z"/>
</g>
<g id="Layer_5">
	<polygon class="st1" points="1186.9,516.1 1189.5,504.8 1192.9,516.1 1194.7,499.1 1198.9,516.1 1201.7,507.6 1205.1,516.1 
		1210.6,499.1 1210.6,516.1 1216.1,507.6 1218.1,516.1 1220.4,503.1 1223.8,516.1 1225.2,499.1 1229.8,516.1 1229.8,504.8 
		1233.7,516.1 1236.1,507.6 1239.1,516.1 1242.1,507.6 1244.9,516.1 1246.4,509.6 1249.5,516.1 1251.4,509.6 1253,516.1 
		1255.8,507.6 1257.3,516.1 1262.3,504 1264.6,516.1 1266.9,507.6 1268.2,516.1 1271.4,499.1 1274,516.1 1277.2,505.7 1278.7,516.1 
			"/>
	<polygon class="st1" points="1253.2,518.3 1256.7,504.9 1260.9,518.3 1263.1,498.2 1268.6,518.3 1272.1,508.3 1276.3,518.3 
		1283.3,498.2 1283.3,518.3 1290.4,508.3 1292.9,518.3 1295.8,502.8 1300,518.3 1301.9,498.2 1307.7,518.3 1307.7,504.9 
		1312.8,518.3 1315.6,508.3 1319.5,518.3 1323.3,508.3 1326.9,518.3 1328.8,510.6 1332.6,518.3 1335.2,510.6 1337.1,518.3 
		1340.6,508.3 1342.5,518.3 1348.9,503.8 1351.9,518.3 1354.7,508.3 1356.3,518.3 1360.4,498.2 1363.6,518.3 1367.9,505.9 
		1369.8,518.3 	"/>
</g>
</svg>
